<mxfile host="app.diagrams.net" modified="2021-06-03T13:31:36.298Z" agent="5.0 (Windows NT 10.0; Win64; x64) AppleWebKit/537.36 (KHTML, like Gecko) Chrome/90.0.4430.85 Safari/537.36" etag="yn71YtDVR0_Eubs1MABW" version="14.6.6" type="github">
  <diagram id="4krfpF02NwatG22TFlGA" name="第 1 页">
    <mxGraphModel dx="870" dy="539" grid="1" gridSize="10" guides="1" tooltips="1" connect="1" arrows="1" fold="1" page="1" pageScale="1" pageWidth="827" pageHeight="1169" math="0" shadow="0">
      <root>
        <mxCell id="0" />
        <mxCell id="1" parent="0" />
        <mxCell id="skoj00y-nMQ5w81tSoaN-2" value="" style="shape=flexArrow;endArrow=classic;html=1;fontColor=#7EA6E0;labelBackgroundColor=#7EA6E0;fillColor=#dae8fc;strokeColor=#6c8ebf;" edge="1" parent="1">
          <mxGeometry width="50" height="50" relative="1" as="geometry">
            <mxPoint x="398.5" y="300" as="sourcePoint" />
            <mxPoint x="398.5" y="370" as="targetPoint" />
            <Array as="points">
              <mxPoint x="398.5" y="330" />
            </Array>
          </mxGeometry>
        </mxCell>
        <mxCell id="skoj00y-nMQ5w81tSoaN-3" value="" style="shape=flexArrow;endArrow=classic;html=1;fillColor=#f8cecc;strokeColor=#b85450;" edge="1" parent="1">
          <mxGeometry width="50" height="50" relative="1" as="geometry">
            <mxPoint x="398.5" y="130" as="sourcePoint" />
            <mxPoint x="398.5" y="200" as="targetPoint" />
            <Array as="points">
              <mxPoint x="398.5" y="160" />
            </Array>
          </mxGeometry>
        </mxCell>
        <mxCell id="skoj00y-nMQ5w81tSoaN-5" value="" style="shape=actor;whiteSpace=wrap;html=1;" vertex="1" parent="1">
          <mxGeometry x="380" y="220" width="40" height="60" as="geometry" />
        </mxCell>
        <mxCell id="skoj00y-nMQ5w81tSoaN-6" value="&lt;font style=&quot;font-size: 16px&quot;&gt;&lt;b&gt;睡眠运动思考&lt;/b&gt;&lt;/font&gt;" style="text;html=1;strokeColor=none;fillColor=none;align=center;verticalAlign=middle;whiteSpace=wrap;rounded=0;fontColor=#FF9999;" vertex="1" parent="1">
          <mxGeometry x="190" y="245" width="40" height="20" as="geometry" />
        </mxCell>
        <mxCell id="skoj00y-nMQ5w81tSoaN-7" value="&lt;font style=&quot;font-size: 16px&quot;&gt;&lt;b&gt;思考&lt;/b&gt;&lt;/font&gt;" style="text;html=1;strokeColor=none;fillColor=none;align=center;verticalAlign=middle;whiteSpace=wrap;rounded=0;fontColor=#FF9999;" vertex="1" parent="1">
          <mxGeometry x="560" y="245" width="40" height="20" as="geometry" />
        </mxCell>
        <mxCell id="skoj00y-nMQ5w81tSoaN-12" value="" style="shape=singleArrow;whiteSpace=wrap;html=1;fillColor=#f8cecc;strokeColor=#b85450;" vertex="1" parent="1">
          <mxGeometry x="260" y="225" width="100" height="60" as="geometry" />
        </mxCell>
        <mxCell id="skoj00y-nMQ5w81tSoaN-13" value="" style="shape=singleArrow;whiteSpace=wrap;html=1;rotation=-180;fillColor=#f8cecc;strokeColor=#b85450;" vertex="1" parent="1">
          <mxGeometry x="440" y="225" width="100" height="60" as="geometry" />
        </mxCell>
        <mxCell id="skoj00y-nMQ5w81tSoaN-14" value="&lt;span style=&quot;font-size: 16px&quot;&gt;&lt;b&gt;求知&lt;br&gt;食物&lt;br&gt;&lt;/b&gt;&lt;/span&gt;" style="text;html=1;strokeColor=none;fillColor=none;align=center;verticalAlign=middle;whiteSpace=wrap;rounded=0;fontColor=#FF9999;" vertex="1" parent="1">
          <mxGeometry x="340" y="60" width="40" height="20" as="geometry" />
        </mxCell>
        <mxCell id="skoj00y-nMQ5w81tSoaN-15" value="&lt;span style=&quot;font-size: 16px&quot;&gt;&lt;b&gt;娱乐环境&lt;br&gt;&lt;/b&gt;&lt;/span&gt;" style="text;html=1;strokeColor=none;fillColor=none;align=center;verticalAlign=middle;whiteSpace=wrap;rounded=0;fontColor=#FF9999;" vertex="1" parent="1">
          <mxGeometry x="420" y="60" width="40" height="20" as="geometry" />
        </mxCell>
        <mxCell id="skoj00y-nMQ5w81tSoaN-16" value="&lt;span style=&quot;font-size: 16px&quot;&gt;&lt;b&gt;排泄物&lt;br&gt;负能量&lt;br&gt;负信息&lt;br&gt;&lt;/b&gt;&lt;/span&gt;" style="text;html=1;strokeColor=none;fillColor=none;align=center;verticalAlign=middle;whiteSpace=wrap;rounded=0;fontColor=#7EA6E0;" vertex="1" parent="1">
          <mxGeometry x="375" y="400" width="50" height="20" as="geometry" />
        </mxCell>
      </root>
    </mxGraphModel>
  </diagram>
</mxfile>
